#!OML:ASF H:\GeneralSubjects\Female5\Project 1\Capture day 1\Session 1\Female5.ASF
:FULLY-SPECIFIED
:DEGREES
343
root 6.15468 15.8331 2.31102 -185.064 -34.974 -178.875
lowerback 21.8705 3.63531 14.8328
upperback -5.21051 8.71524 -3.19827
thorax -15.1285 2.36933 -14.6481
lowerneck -12.1985 2.76728 3.22139
upperneck 36.7688 3.69346 -7.64512
head 15.0693 0.117066 -3.43742
rclavicle 4.19436e-014 1.25234e-014
rhumerus -63.3588 17.5558 -63.0407
rradius 63.4122
rwrist -10.8694
rhand -26.8264 -13.0065
rfingers 7.12502
rthumb -0.252431 -42.986
lclavicle 4.19436e-014 1.25234e-014
lhumerus -56.5359 -25.9427 54.4547
lradius 107.99
lwrist -14.4142
lhand -29.4138 20.2991
lfingers 7.12502
lthumb -2.75136 50.2611
rfemur -2.65571 9.71346 30.8546
rtibia 16.2994
rfoot 344.364 -7.415
rtoes -1.11421
lfemur -68.4894 3.19008 -26.4062
ltibia 55.8852
lfoot 167.056 -8.76059
ltoes -64.9648
344
root 6.09494 15.8624 2.28558 -185.759 -34.5009 -180.621
lowerback 22.843 3.51007 14.4252
upperback -4.35936 8.45448 -3.42857
thorax -14.758 2.37203 -14.6322
lowerneck -11.3724 2.80964 2.96567
upperneck 36.3827 3.83419 -7.78996
head 14.6989 0.132108 -3.40424
rclavicle 1.87479e-014 3.02153e-014
rhumerus -62.5319 18.6854 -62.812
rradius 63.839
rwrist -11.2897
rhand -25.5875 -12.9783
rfingers 7.12502
rthumb 0.944163 -42.956
lclavicle 1.87479e-014 3.02153e-014
lhumerus -56.6421 -26.0341 53.8706
lradius 108.476
lwrist -13.3355
lhand -29.5751 20.3004
lfingers 7.12502
lthumb -2.90709 50.2603
rfemur -0.619694 10.3193 29.8908
rtibia 16.5745
rfoot 344.315 -8.49283
rtoes -2.93796
lfemur -72.1865 2.31983 -28.0476
ltibia 53.4868
lfoot 167.115 -9.49038
ltoes -65.7574
345
root 6.03414 15.8894 2.26307 -186.923 -34.0971 -181.652
lowerback 23.9733 3.24967 14.636
upperback -3.62313 8.23147 -3.59609
thorax -14.5113 2.31017 -14.9142
lowerneck -10.5858 2.85953 2.97755
upperneck 36.0467 3.93686 -8.01457
head 14.3729 0.157326 -3.46347
rclavicle -4.72114e-016 -1.69961e-014
rhumerus -61.8611 19.8638 -62.7013
rradius 64.2538
rwrist -11.247
rhand -25.2695 -12.8931
rfingers 7.12502
rthumb 1.25129 -42.8692
lclavicle -4.72114e-016 -1.69961e-014
lhumerus -56.2543 -25.6115 53.3837
lradius 108.953
lwrist -12.5608
lhand -29.4816 20.3601
lfingers 7.12502
lthumb -2.81681 50.3213
rfemur 1.35347 10.7307 29.6262
rtibia 17.1464
rfoot 344.052 -9.09064
rtoes -1.94307
lfemur -75.836 1.42463 -28.783
ltibia 53.0952
lfoot 166.798 -9.95398
ltoes -66.4346
346
root 5.98463 15.9083 2.24155 -188.522 -33.7438 -182.041
lowerback 25.1731 2.84537 15.3571
upperback -2.90122 7.99289 -3.70816
thorax -14.2515 2.20095 -15.4035
lowerneck -9.72985 3.14425 4.00384
upperneck 35.7576 4.31359 -8.75728
head 14.1229 0.372026 -3.88748
rclavicle -7.85324e-014 1.33683e-014
rhumerus -61.1716 21.1574 -62.7974
rradius 64.6882
rwrist -11.1135
rhand -25.302 -13.1988
rfingers 7.12502
rthumb 1.2199 -43.1751
lclavicle -7.85324e-014 1.33683e-014
lhumerus -56.0304 -25.424 52.9741
lradius 109.328
lwrist -12.0216
lhand -29.9857 21.472
lfingers 7.12502
lthumb -3.30368 51.4261
rfemur 3.16408 10.853 29.9343
rtibia 18.037
rfoot 343.649 -9.40221
rtoes -0.813183
lfemur -79.4793 0.633569 -28.6968
ltibia 53.8281
lfoot 166.331 -9.5366
ltoes -67.499
347
root 5.95331 15.9168 2.2113 -190.153 -33.4279 -182.377
lowerback 26.1659 2.47329 15.92
upperback -2.11764 7.70643 -3.82097
thorax -13.8429 2.10924 -15.7527
lowerneck -9.54216 3.14694 3.4371
upperneck 36.2451 4.15918 -8.09768
head 14.2592 0.279171 -3.56441
rclavicle 6.35894e-014 2.78299e-014
rhumerus -60.2414 22.5103 -62.8449
rradius 64.8625
rwrist -10.665
rhand -24.8842 -13.7135
rfingers 7.12502
rthumb 1.62341 -43.6871
lclavicle 6.35894e-014 2.78299e-014
lhumerus -55.7673 -24.6804 52.7614
lradius 109.618
lwrist -12.2624
lhand -30.8446 22.7605
lfingers 7.12502
lthumb -4.13308 52.7002
rfemur 4.88484 10.9063 30.3155
rtibia 19.0133
rfoot 343.26 -9.97128
rtoes -2.94746
lfemur -82.7655 0.0907886 -28.027
ltibia 55.8784
lfoot 166.273 -8.94914
ltoes -67.7089
348
root 5.93502 15.9059 2.1805 -191.818 -33.0269 -182.723
lowerback 27.8204 2.23774 16.0646
upperback -1.72006 7.64437 -3.79037
thorax -14.1994 2.02661 -15.8856
lowerneck -8.59166 3.28642 3.84908
upperneck 36.6143 4.21201 -8.27095
head 14.2363 0.299973 -3.73258
rclavicle -4.88094e-014 -1.00883e-014
rhumerus -59.5826 23.9343 -62.668
rradius 64.7191
rwrist -9.96538
rhand -24.3917 -13.4165
rfingers 7.12502
rthumb 2.09904 -43.3859
lclavicle -4.88094e-014 -1.00883e-014
lhumerus -55.4331 -24.1129 53.2034
lradius 109.401
lwrist -12.7575
lhand -31.7386 22.5349
lfingers 7.12502
lthumb -4.99634 52.456
rfemur 6.67931 11.0334 30.7276
rtibia 19.7907
rfoot 343.056 -10.4881
rtoes -4.6337
lfemur -85.6041 0.121196 -27.5119
ltibia 59.9862
lfoot 165.734 -9.36285
ltoes -68.0085
349
root 5.92338 15.8728 2.15477 -193.481 -32.6575 -182.925
lowerback 29.3951 2.01233 16.2492
upperback -1.41829 7.61985 -3.70576
thorax -14.5936 1.9482 -15.982
lowerneck -8.58119 3.58692 4.24413
upperneck 38.2321 4.26667 -7.91883
head 15.0246 0.31944 -3.76753
rclavicle 1.38579e-014 -4.96993e-014
rhumerus -58.4715 25.2411 -62.2944
rradius 64.1829
rwrist -9.2874
rhand -23.8792 -12.5273
rfingers 7.12502
rthumb 2.59406 -42.4913
lclavicle 1.38579e-014 -4.96993e-014
lhumerus -54.5561 -23.2486 53.8904
lradius 108.595
lwrist -12.7826
lhand -31.9457 21.5563
lfingers 7.12502
lthumb -5.19625 51.4726
rfemur 8.29562 10.9978 31.1505
rtibia 20.5517
rfoot 342.906 -10.6741
rtoes -4.34407
lfemur -87.9732 0.771733 -26.9518
ltibia 65.4662
lfoot 169.228 -11.9704
ltoes -72.8616
350
root 5.91777 15.8224 2.12623 -194.917 -32.4864 -182.983
lowerback 30.4999 1.8435 16.4501
upperback -1.2205 7.62743 -3.59209
thorax -14.8595 1.90035 -16.026
lowerneck -6.80945 3.57935 3.68079
upperneck 38.8086 3.79019 -6.86227
head 14.8076 0.10907 -3.32196
rclavicle -4.35742e-014 -3.34455e-014
rhumerus -57.0513 26.3475 -61.7425
rradius 63.2579
rwrist -8.60983
rhand -23.5879 -11.9834
rfingers 7.12502
rthumb 2.87531 -41.9437
lclavicle -4.35742e-014 -3.34455e-014
lhumerus -53.1658 -22.4071 54.8482
lradius 107.293
lwrist -12.4785
lhand -31.7804 21.2417
lfingers 7.12502
lthumb -5.03666 51.1619
rfemur 9.52224 10.8244 31.5744
rtibia 21.3831
rfoot 342.675 -10.84
rtoes -4.62341
lfemur -89.7737 1.55112 -26.3447
ltibia 72.878
lfoot 163.081 -8.24524
ltoes -65.9511
351
root 5.92178 15.761 2.09431 -196.159 -32.4763 -182.782
lowerback 31.2265 1.69563 16.6654
upperback -1.14542 7.64066 -3.43768
thorax -15.0884 1.85845 -16.011
lowerneck -5.96581 3.78863 3.95842
upperneck 40.4809 3.35799 -5.8604
head 15.4105 -0.0277936 -3.11946
rclavicle -4.5149e-014 3.45388e-015
rhumerus -55.1998 27.1993 -60.9996
rradius 61.9486
rwrist -7.84693
rhand -23.7293 -12.1852
rfingers 7.12502
rthumb 2.73883 -42.1474
lclavicle -4.5149e-014 3.45388e-015
lhumerus -51.6873 -21.4368 56.1004
lradius 105.613
lwrist -12.9142
lhand -31.7715 22.2812
lfingers 7.12502
lthumb -5.02812 52.2015
rfemur 10.5088 10.7029 32.2179
rtibia 21.9733
rfoot 342.36 -11.1632
rtoes -5.66598
lfemur -90.6731 1.96505 -25.2623
ltibia 85.5597
lfoot 199.639 39.4102
ltoes -64.5423
